<?xml version="1.0" encoding="utf-8"?>
<!-- Generator: Adobe Illustrator 23.1.0, SVG Export Plug-In . SVG Version: 6.00 Build 0)  -->
<svg version="1.1" id="图层_1" xmlns="http://www.w3.org/2000/svg" xmlns:xlink="http://www.w3.org/1999/xlink" x="0px" y="0px"
	 viewBox="0 0 480 120" style="enable-background:new 0 0 480 120;" xml:space="preserve">
<style type="text/css">
	.st0{fill:#333333;}
	.st1{fill:#E91E63;}
	.st2{fill:#2299FF;}
	.st4{fill:#ffffff;}
</style>
<g>
	<path class="st4" d="M192.6,73c0.3,6.6-2.3,13-6.9,17.8c-4.6,4.6-10.9,7.1-17.5,6.9c-7.1,0-12.8-1.8-17.2-5.3
		c-4.4-3.7-7-9-7.2-14.7h9.3c0.3,3.5,2,6.9,4.8,9.2c3.1,2.3,6.9,3.4,10.7,3.2c4,0.1,7.8-1.5,10.4-4.5c2.8-3.2,4.2-7.3,4-11.5
		c0.3-4.3-1.3-8.6-4.2-11.8c-3-3-7.2-4.6-11.5-4.4c-2.6,0-5.2,0.7-7.6,1.9c-2.3,1.1-4.1,2.8-5.5,4.9l-7.5-0.5l5.1-37.9h36.8v8.6
		h-30.2l-3.1,19.4l0.3-0.2c3.6-2.6,7.9-4,12.4-4c7.5,0,13.4,2.1,17.8,6.2C190.4,60.4,192.6,66,192.6,73z"/>
	<g>
		<rect x="203.5" y="26.3" class="st1" width="9.1" height="10.1"/>
		<polygon class="st4" points="203.7,43.1 208,43.1 212.5,43.1 212.5,97.7 208,97.7 203.7,97.7 		"/>
	</g>
	<path class="st4" d="M234.9,77.1c0,4.5,0.8,7.7,2.5,9.6c1.7,1.9,4.5,2.9,8.3,2.9c4,0.2,7.8-1.7,10.2-5c2.7-4,4-8.7,3.7-13.5V43.2h9
		v54.7h-8.4v-10c-0.6,0.9-1.3,1.9-1.9,2.7c-3.4,4.4-8.7,6.8-14.2,6.7c-6,0-10.4-1.5-13.5-4.5c-3-3-4.5-7.5-4.5-13.5V43.2h8.9v34
		H234.9z"/>
	<path class="st2" d="M322.1,92l4.7,4.5c1.1,1,2.6,1.6,4.1,1.5l0,0c1.5,0,2.9-0.7,3.9-1.7l10.6-11.4c2.1-2.3,2-5.9-0.3-8l-16.7-15.6
		L342.6,46c0.8-0.9,1.4-2,1.6-3.3l0.2-0.2l-0.1-0.2c0-0.2,0-0.3,0-0.6c0-1.5-0.6-3-1.7-4.1l-10.9-10.1c-1.1-1-2.4-1.5-4-1.4l0,0
		c-0.3,0-0.5,0-0.8,0l-0.3-0.2l-0.3,0.3c-1.1,0.3-2,0.9-2.9,1.7l-14.2,15.3l-16.8-15.6c-2.3-2.1-5.8-2-8,0.3l0,0l-10.7,11.4
		c-2.1,2.3-2,5.9,0.3,8l5.5,5l5.9,5.5L291,63l-11.8,12.6l0,0l0,0l0,0v0.1l0,0v0.1l0,0l0,0V76l0,0c-0.1,0.2-0.1,0.3-0.1,0.5
		l-2.4,18.4c-0.1,1.1,0.6,2.2,1.7,2.4v0.1h1.3l0,0l17.8-3.6h0.2c0.6-0.2,1.1-0.5,1.4-1l10.9-12.1l11.7,10.9 M330.7,93.4
		c-0.3,0-0.6-0.1-0.8-0.3l-3.8-3.5l6.5-7.1c0.1,0,0.1-0.1,0.1-0.1c0.8-1,0.5-2.4-0.5-3.2c-0.9-0.7-2.1-0.6-2.9,0.2l-6.6,7.1
		l-2.5-2.4l6.6-7.1l0,0c0.4-0.5,0.7-1.1,0.6-1.7c0-0.6-0.3-1.2-0.8-1.6c-0.4-0.4-1-0.6-1.6-0.6c-0.6,0-1.2,0.3-1.6,0.8l-6.6,7.1
		l-3.8-3.4l12.2-13L342,80.2c0.4,0.4,0.4,1.1,0,1.5l-10.7,11.4C331.2,93.4,330.9,93.5,330.7,93.4L330.7,93.4z M296.8,49.1
		L296.8,49.1c0.8-0.9,0.8-2.4-0.2-3.2c-0.4-0.3-0.9-0.6-1.5-0.6c-0.6,0-1.1,0.3-1.5,0.7l0,0l-6.6,7.1l-2.5-2.4l6.6-7.1l0,0
		c0.8-0.9,0.8-2.3-0.1-3.1c-0.5-0.4-1.1-0.7-1.7-0.7s-1.1,0.3-1.5,0.7l0,0l-6.6,7.1l-3.8-3.5c-0.4-0.4-0.4-1.1,0-1.5L288,31.1
		c0.2-0.2,0.5-0.3,0.8-0.3l0,0c0.3,0,0.6,0.1,0.8,0.3l16.7,15.6l-12.1,13l-3.8-3.5L296.8,49.1L296.8,49.1z M319.2,39.4L331.7,51
		l-8.2,8.7l0,0L308.3,76l-0.1,0.1l-11.7,12.5l-12.4-11.6L319.2,39.4z M291.7,90.6l-10.5,2.1l1.4-10.9L291.7,90.6z"/>
</g>
</svg>
